<svg xmlns="http://www.w3.org/2000/svg" xmlns:xlink="http://www.w3.org/1999/xlink" width="10" height="10" viewBox="0 0 10 10">
  <defs>
    <clipPath id="clip-path">
      <rect id="Rectangle_4064" data-name="Rectangle 4064" width="10" height="10" transform="translate(4514 -176)" fill="#fff" stroke="#707070" stroke-width="1"/>
    </clipPath>
  </defs>
  <g id="favicon" transform="translate(-4514 176)" clip-path="url(#clip-path)">
    <g id="Group_8849" data-name="Group 8849" transform="translate(4514 -175.8)">
      <g id="Group_1" data-name="Group 1" transform="translate(0 5.037)">
        <path id="Path_2" data-name="Path 2" d="M356.549,256.1a2.711,2.711,0,0,1,2.015.294,4.244,4.244,0,0,1,.612,2.067v.019c.031.572.006,1.029.006,1.029h-1.826a5.252,5.252,0,0,0-.1-2.577A1.552,1.552,0,0,0,356.549,256.1Z" transform="translate(-354.747 -254.974)" fill="#002e7f"/>
        <path id="Path_3" data-name="Path 3" d="M330.409,242.859v-1.944a3.973,3.973,0,0,1,3.816,1.344,3.708,3.708,0,0,1,.612,2.067v.019a3.071,3.071,0,0,0-1.922-1.548A4.606,4.606,0,0,0,330.409,242.859Z" transform="translate(-330.409 -240.845)" fill="#0064b0"/>
      </g>
      <g id="Group_2" data-name="Group 2" transform="translate(5.556 0)">
        <path id="Path_4" data-name="Path 4" d="M413.668,171.166a2.711,2.711,0,0,1-2.015-.294,4.244,4.244,0,0,1-.612-2.067v-.019c-.031-.572-.006-1.029-.006-1.029h1.826a5.252,5.252,0,0,0,.1,2.577A1.551,1.551,0,0,0,413.668,171.166Z" transform="translate(-411.026 -167.758)" fill="#002e7f"/>
        <path id="Path_5" data-name="Path 5" d="M415.68,184.175v1.944a3.973,3.973,0,0,1-3.816-1.344,3.708,3.708,0,0,1-.612-2.067v-.019a3.071,3.071,0,0,0,1.922,1.548A4.605,4.605,0,0,0,415.68,184.175Z" transform="translate(-411.236 -181.66)" fill="#0064b0"/>
      </g>
      <g id="Group_3" data-name="Group 3" transform="translate(5.382 5.226)">
        <path id="Path_6" data-name="Path 6" d="M428.1,243.579V245.5a5.746,5.746,0,0,0-2.523-.207c-.077.019-.15.173-.221.2-.355.127-.482.473-.664.816a2.711,2.711,0,0,1,.294-2.015,4.225,4.225,0,0,1,2.067-.7h.019c.083-.006.161-.009.238-.012a.452.452,0,0,1,.065,0Z" transform="translate(-423.509 -243.577)" fill="#0063b0"/>
        <path id="Path_7" data-name="Path 7" d="M412.307,243.577l0,0a3.465,3.465,0,0,0-1.727,1.845c-.022.059-.04.117-.059.176a5.074,5.074,0,0,0-.034,2.318H408.54s0-.015-.006-.049a5.01,5.01,0,0,1,.29-2.37l.019-.046a2.906,2.906,0,0,1,.2-.389,2.748,2.748,0,0,1,.284-.4,2.807,2.807,0,0,1,.581-.507,3.564,3.564,0,0,1,.572-.306c.006,0,.012,0,.019-.006A5.154,5.154,0,0,1,412.307,243.577Z" transform="translate(-408.499 -243.577)" fill="#009bdb"/>
      </g>
      <g id="Group_4" data-name="Group 4" transform="translate(0.023 0)">
        <path id="Path_8" data-name="Path 8" d="M330.738,193.89V191.97a5.746,5.746,0,0,0,2.523.207c.077-.019.15-.173.222-.2.355-.127.482-.473.664-.816a2.711,2.711,0,0,1-.294,2.015,4.225,4.225,0,0,1-2.067.7h-.019c-.083.006-.161.009-.238.012a.456.456,0,0,1-.065,0Z" transform="translate(-330.738 -189.55)" fill="#0063b0"/>
        <path id="Path_9" data-name="Path 9" d="M342.172,172.1l0,0a3.466,3.466,0,0,0,1.727-1.845c.022-.059.04-.117.059-.176a5.075,5.075,0,0,0,.034-2.318h1.944s0,.015.006.049a5.01,5.01,0,0,1-.29,2.37l-.019.046a2.906,2.906,0,0,1-.2.389,2.755,2.755,0,0,1-.284.4,2.81,2.81,0,0,1-.581.507,3.565,3.565,0,0,1-.572.306c-.006,0-.012,0-.019.006A5.155,5.155,0,0,1,342.172,172.1Z" transform="translate(-341.384 -167.758)" fill="#009bdb"/>
      </g>
    </g>
  </g>
</svg>
